<svg xmlns:xlink="http://www.w3.org/1999/xlink" xmlns="http://www.w3.org/2000/svg" width="1058" zoomAndPan="magnify"
     viewBox="0 0 793.5 125.249995" height="167" preserveAspectRatio="xMidYMid meet" version="1.0">
    <defs>
        <g/>
        <clipPath id="id1">
            <path d="M 145.449219 20.011719 L 264.398438 20.011719 L 264.398438 97.789062 L 145.449219 97.789062 Z M 145.449219 20.011719 "
                  clip-rule="nonzero"/>
        </clipPath>
    </defs>
    <g fill="#fc7804" fill-opacity="1">
        <g transform="translate(10.131589, 93.852508)">
            <g>
                <path d="M 61.890625 -23.125 C 61.109375 -15.476562 58.378906 -9.539062 53.703125 -5.3125 C 49.035156 -1.09375 42.679688 1.015625 34.640625 1.015625 C 29.066406 1.015625 24.175781 -0.375 19.96875 -3.15625 C 15.757812 -5.9375 12.5 -9.859375 10.1875 -14.921875 C 7.875 -19.984375 6.71875 -25.820312 6.71875 -32.4375 L 6.71875 -41.71875 C 6.71875 -48.375 7.875 -54.222656 10.1875 -59.265625 C 12.5 -64.304688 15.789062 -68.21875 20.0625 -71 C 24.34375 -73.78125 29.335938 -75.171875 35.046875 -75.171875 C 40.273438 -75.171875 44.804688 -74.21875 48.640625 -72.3125 C 52.472656 -70.414062 55.507812 -67.660156 57.75 -64.046875 C 60 -60.429688 61.378906 -56.078125 61.890625 -50.984375 L 55.625 -50.984375 C 54.019531 -63.546875 47.160156 -69.828125 35.046875 -69.828125 C 30.523438 -69.828125 26.597656 -68.664062 23.265625 -66.34375 C 19.941406 -64.019531 17.394531 -60.75 15.625 -56.53125 C 13.863281 -52.320312 12.984375 -47.414062 12.984375 -41.8125 L 12.984375 -32.4375 C 12.984375 -26.976562 13.832031 -22.113281 15.53125 -17.84375 C 17.226562 -13.582031 19.707031 -10.253906 22.96875 -7.859375 C 26.226562 -5.472656 30.117188 -4.28125 34.640625 -4.28125 C 41.085938 -4.28125 45.988281 -5.832031 49.34375 -8.9375 C 52.707031 -12.039062 54.800781 -16.769531 55.625 -23.125 Z M 61.890625 -23.125 "/>
            </g>
        </g>
    </g>
    <g fill="#fc7804" fill-opacity="1">
        <g transform="translate(84.336044, 93.852508)">
            <g>
                <path d="M 52.3125 -5.296875 L 52.3125 0 L 9.421875 0 L 9.421875 -74.15625 L 15.734375 -74.15625 L 15.734375 -5.296875 Z M 52.3125 -5.296875 "/>
            </g>
        </g>
    </g>
    <g fill="#fc7804" fill-opacity="1">
        <g transform="translate(145.785401, 93.852508)">
            <g/>
        </g>
    </g>
    <g fill="#fc7804" fill-opacity="1">
        <g transform="translate(177.667544, 93.852508)">
            <g/>
        </g>
    </g>
    <g fill="#fc7804" fill-opacity="1">
        <g transform="translate(209.549688, 93.852508)">
            <g/>
        </g>
    </g>
    <g fill="#fc7804" fill-opacity="1">
        <g transform="translate(241.431834, 93.852508)">
            <g/>
        </g>
    </g>
    <g fill="#fc7804" fill-opacity="1">
        <g transform="translate(273.297012, 93.852508)">
            <g>
                <path d="M 60.453125 -23.9375 C 60.453125 -18.539062 59.304688 -13.972656 57.015625 -10.234375 C 54.722656 -6.503906 51.597656 -3.695312 47.640625 -1.8125 C 43.691406 0.0703125 39.253906 1.015625 34.328125 1.015625 C 29.304688 1.015625 24.832031 0.0820312 20.90625 -1.78125 C 16.988281 -3.644531 13.90625 -6.453125 11.65625 -10.203125 C 9.414062 -13.960938 8.296875 -18.539062 8.296875 -23.9375 L 8.296875 -74.15625 L 14.515625 -74.15625 L 14.515625 -23.9375 C 14.515625 -19.726562 15.351562 -16.144531 17.03125 -13.1875 C 18.71875 -10.238281 21.050781 -8.015625 24.03125 -6.515625 C 27.019531 -5.023438 30.453125 -4.28125 34.328125 -4.28125 C 38.234375 -4.28125 41.679688 -5.023438 44.671875 -6.515625 C 47.660156 -8.015625 49.992188 -10.238281 51.671875 -13.1875 C 53.347656 -16.144531 54.1875 -19.726562 54.1875 -23.9375 L 54.1875 -74.15625 L 60.453125 -74.15625 Z M 60.453125 -23.9375 "/>
            </g>
        </g>
    </g>
    <g fill="#fc7804" fill-opacity="1">
        <g transform="translate(348.367266, 93.852508)">
            <g>
                <path d="M 30.15625 -74.15625 C 36.269531 -74.15625 41.726562 -72.765625 46.53125 -69.984375 C 51.332031 -67.203125 55.070312 -63.253906 57.75 -58.140625 C 60.4375 -53.023438 61.78125 -47.144531 61.78125 -40.5 L 61.78125 -33.671875 C 61.78125 -26.984375 60.4375 -21.09375 57.75 -16 C 55.070312 -10.90625 51.304688 -6.960938 46.453125 -4.171875 C 41.597656 -1.390625 36.007812 0 29.6875 0 L 9.421875 0 L 9.421875 -74.15625 Z M 55.5625 -40.59375 C 55.5625 -46.226562 54.507812 -51.175781 52.40625 -55.4375 C 50.300781 -59.695312 47.328125 -62.988281 43.484375 -65.3125 C 39.648438 -67.644531 35.207031 -68.8125 30.15625 -68.8125 L 15.6875 -68.8125 L 15.6875 -5.296875 L 29.6875 -5.296875 C 34.914062 -5.296875 39.484375 -6.484375 43.390625 -8.859375 C 47.296875 -11.234375 50.300781 -14.5625 52.40625 -18.84375 C 54.507812 -23.125 55.5625 -28.066406 55.5625 -33.671875 Z M 55.5625 -40.59375 "/>
            </g>
        </g>
    </g>
    <g fill="#ffc433" fill-opacity="1">
        <g transform="translate(423.155101, 93.852508)">
            <g>
                <path d="M 43.796875 -38.703125 C 46.679688 -38.054688 49.210938 -36.875 51.390625 -35.15625 C 53.566406 -33.445312 55.25 -31.351562 56.4375 -28.875 C 57.625 -26.394531 58.21875 -23.734375 58.21875 -20.890625 C 58.21875 -16.472656 57.234375 -12.691406 55.265625 -9.546875 C 53.296875 -6.410156 50.523438 -4.035156 46.953125 -2.421875 C 43.390625 -0.804688 39.234375 0 34.484375 0 L 9.421875 0 L 9.421875 -74.15625 L 31.328125 -74.15625 C 39.066406 -74.15625 45.03125 -72.566406 49.21875 -69.390625 C 53.414062 -66.222656 55.515625 -61.363281 55.515625 -54.8125 C 55.515625 -51 54.488281 -47.675781 52.4375 -44.84375 C 50.382812 -42.007812 47.503906 -39.960938 43.796875 -38.703125 Z M 15.6875 -68.8125 L 15.6875 -40.953125 L 31.9375 -40.953125 C 37.46875 -40.953125 41.726562 -42.140625 44.71875 -44.515625 C 47.707031 -46.890625 49.203125 -50.351562 49.203125 -54.90625 C 49.203125 -59.625 47.710938 -63.117188 44.734375 -65.390625 C 41.765625 -67.671875 37.296875 -68.8125 31.328125 -68.8125 Z M 34.484375 -5.296875 C 38.078125 -5.296875 41.179688 -5.914062 43.796875 -7.15625 C 46.410156 -8.394531 48.414062 -10.175781 49.8125 -12.5 C 51.207031 -14.832031 51.90625 -17.59375 51.90625 -20.78125 C 51.90625 -23.664062 51.285156 -26.226562 50.046875 -28.46875 C 48.804688 -30.707031 46.910156 -32.472656 44.359375 -33.765625 C 41.816406 -35.054688 38.675781 -35.703125 34.9375 -35.703125 L 15.6875 -35.703125 L 15.6875 -5.296875 Z M 34.484375 -5.296875 "/>
            </g>
        </g>
    </g>
    <g fill="#ffc433" fill-opacity="1">
        <g transform="translate(493.539852, 93.852508)">
            <g>
                <path d="M 64.171875 -33.109375 C 64.171875 -26.242188 62.988281 -20.238281 60.625 -15.09375 C 58.269531 -9.957031 54.921875 -5.988281 50.578125 -3.1875 C 46.234375 -0.382812 41.15625 1.015625 35.34375 1.015625 C 29.644531 1.015625 24.601562 -0.382812 20.21875 -3.1875 C 15.84375 -5.988281 12.445312 -9.96875 10.03125 -15.125 C 7.625 -20.289062 6.421875 -26.285156 6.421875 -33.109375 L 6.421875 -41.046875 C 6.421875 -47.878906 7.613281 -53.875 10 -59.03125 C 12.394531 -64.195312 15.773438 -68.175781 20.140625 -70.96875 C 24.503906 -73.769531 29.539062 -75.171875 35.25 -75.171875 C 41.050781 -75.171875 46.132812 -73.769531 50.5 -70.96875 C 54.863281 -68.175781 58.234375 -64.207031 60.609375 -59.0625 C 62.984375 -53.914062 64.171875 -47.910156 64.171875 -41.046875 Z M 57.96875 -41.15625 C 57.96875 -47 57.066406 -52.054688 55.265625 -56.328125 C 53.460938 -60.609375 50.851562 -63.898438 47.4375 -66.203125 C 44.03125 -68.515625 39.96875 -69.671875 35.25 -69.671875 C 30.625 -69.671875 26.613281 -68.515625 23.21875 -66.203125 C 19.820312 -63.898438 17.21875 -60.597656 15.40625 -56.296875 C 13.59375 -52.003906 12.6875 -46.957031 12.6875 -41.15625 L 12.6875 -33.109375 C 12.6875 -27.265625 13.601562 -22.191406 15.4375 -17.890625 C 17.269531 -13.597656 19.890625 -10.289062 23.296875 -7.96875 C 26.710938 -5.644531 30.726562 -4.484375 35.34375 -4.484375 C 40.101562 -4.484375 44.179688 -5.632812 47.578125 -7.9375 C 50.972656 -10.25 53.550781 -13.550781 55.3125 -17.84375 C 57.082031 -22.144531 57.96875 -27.234375 57.96875 -33.109375 Z M 57.96875 -41.15625 "/>
            </g>
        </g>
    </g>
    <g fill="#ffc433" fill-opacity="1">
        <g transform="translate(570.647281, 93.852508)">
            <g>
                <path d="M 49.453125 -20.78125 L 15.734375 -20.78125 L 8.09375 0 L 1.578125 0 L 29.59375 -74.15625 L 35.546875 -74.15625 L 63.609375 0 L 57.09375 0 Z M 47.46875 -26.125 L 32.59375 -66.578125 L 17.71875 -26.125 Z M 47.46875 -26.125 "/>
            </g>
        </g>
    </g>
    <g fill="#ffc433" fill-opacity="1">
        <g transform="translate(642.305265, 93.852508)">
            <g>
                <path d="M 61.734375 -0.65625 L 61.734375 0 L 55.015625 0 L 37.125 -30.921875 L 15.53125 -30.921875 L 15.53125 0 L 9.265625 0 L 9.265625 -74.15625 L 33.359375 -74.15625 C 38.523438 -74.15625 42.988281 -73.316406 46.75 -71.640625 C 50.519531 -69.960938 53.421875 -67.484375 55.453125 -64.203125 C 57.492188 -60.921875 58.515625 -56.957031 58.515625 -52.3125 C 58.515625 -49.082031 57.867188 -46.097656 56.578125 -43.359375 C 55.296875 -40.628906 53.5 -38.304688 51.1875 -36.390625 C 48.875 -34.472656 46.207031 -33.070312 43.1875 -32.1875 Z M 34.734375 -36.21875 C 38.472656 -36.21875 41.65625 -36.953125 44.28125 -38.421875 C 46.914062 -39.898438 48.90625 -41.863281 50.25 -44.3125 C 51.59375 -46.757812 52.265625 -49.425781 52.265625 -52.3125 C 52.265625 -55.707031 51.53125 -58.644531 50.0625 -61.125 C 48.601562 -63.601562 46.460938 -65.503906 43.640625 -66.828125 C 40.828125 -68.148438 37.398438 -68.8125 33.359375 -68.8125 L 15.53125 -68.8125 L 15.53125 -36.21875 Z M 34.734375 -36.21875 "/>
            </g>
        </g>
    </g>
    <g fill="#ffc433" fill-opacity="1">
        <g transform="translate(715.032768, 93.852508)">
            <g>
                <path d="M 30.15625 -74.15625 C 36.269531 -74.15625 41.726562 -72.765625 46.53125 -69.984375 C 51.332031 -67.203125 55.070312 -63.253906 57.75 -58.140625 C 60.4375 -53.023438 61.78125 -47.144531 61.78125 -40.5 L 61.78125 -33.671875 C 61.78125 -26.984375 60.4375 -21.09375 57.75 -16 C 55.070312 -10.90625 51.304688 -6.960938 46.453125 -4.171875 C 41.597656 -1.390625 36.007812 0 29.6875 0 L 9.421875 0 L 9.421875 -74.15625 Z M 55.5625 -40.59375 C 55.5625 -46.226562 54.507812 -51.175781 52.40625 -55.4375 C 50.300781 -59.695312 47.328125 -62.988281 43.484375 -65.3125 C 39.648438 -67.644531 35.207031 -68.8125 30.15625 -68.8125 L 15.6875 -68.8125 L 15.6875 -5.296875 L 29.6875 -5.296875 C 34.914062 -5.296875 39.484375 -6.484375 43.390625 -8.859375 C 47.296875 -11.234375 50.300781 -14.5625 52.40625 -18.84375 C 54.507812 -23.125 55.5625 -28.066406 55.5625 -33.671875 Z M 55.5625 -40.59375 "/>
            </g>
        </g>
    </g>
    <g clip-path="url(#id1)">
        <path fill="#ffc433"
              d="M 246.652344 56.730469 C 245.566406 36.296875 229.238281 20.011719 209.324219 20.011719 C 192.640625 20.011719 178.210938 31.324219 173.523438 47.789062 C 172.246094 47.574219 170.980469 47.464844 169.738281 47.464844 C 156.398438 47.464844 145.546875 58.75 145.546875 72.625 C 145.546875 86.5 156.398438 97.789062 169.738281 97.789062 L 244.511719 97.789062 C 255.425781 97.789062 264.304688 88.554688 264.304688 77.199219 C 264.304688 66.601562 256.5625 57.847656 246.652344 56.730469 Z M 244.511719 93.210938 L 169.738281 93.210938 C 158.824219 93.210938 149.945312 83.976562 149.945312 72.625 C 149.945312 61.273438 158.824219 52.039062 169.738281 52.039062 C 171.304688 52.039062 172.933594 52.253906 174.574219 52.683594 C 175.148438 52.839844 175.753906 52.742188 176.253906 52.421875 C 176.757812 52.105469 177.117188 51.589844 177.253906 50.992188 C 180.785156 35.445312 193.972656 24.589844 209.324219 24.589844 C 227.511719 24.589844 242.3125 39.980469 242.3125 58.902344 C 242.3125 60.164062 243.296875 61.1875 244.511719 61.1875 C 253 61.1875 259.90625 68.371094 259.90625 77.199219 C 259.90625 86.027344 253 93.210938 244.511719 93.210938 Z M 244.511719 93.210938 "
              fill-opacity="1" fill-rule="nonzero"/>
    </g>
</svg>
